<svg xmlns="http://www.w3.org/2000/svg" xmlns:xlink="http://www.w3.org/1999/xlink" width="157.437" height="157.125" viewBox="0 0 157.437 157.125"><defs><style>.a{fill:url(#a);}.b{fill:url(#b);}.c{fill:#f4f7fa;}.d{clip-path:url(#d);}.e,.m{mix-blend-mode:soft-light;}.am,.at,.e,.m,.n{isolation:isolate;}.f{fill:#fcfdfe;}.g{clip-path:url(#f);}.h{fill:url(#g);}.i{fill:url(#h);}.j,.n{fill:url(#i);}.k{fill:url(#j);}.l,.m{fill:#fff;}.m{opacity:0.48;}.am,.at,.n{opacity:0.3;mix-blend-mode:multiply;}.o{fill:#bfc6d1;}.p{fill:#d8dee8;}.q{fill:url(#m);}.r{fill:url(#n);}.s{fill:url(#o);}.t{fill:url(#p);}.u{fill:url(#q);}.v{fill:url(#r);}.w{fill:url(#s);}.x{fill:url(#t);}.y{fill:url(#u);}.z{fill:url(#v);}.aa{fill:url(#w);}.ab{fill:url(#x);}.ac{fill:url(#y);}.ad{fill:url(#z);}.ae{fill:url(#aa);}.af{fill:url(#ab);}.ag{fill:url(#ac);}.ah{fill:url(#ad);}.ai{fill:url(#ae);}.aj{fill:url(#af);}.ak{fill:url(#ag);}.al,.am{fill:url(#ah);}.an{fill:url(#ak);}.ao{fill:url(#al);}.ap{fill:url(#am);}.aq{fill:url(#an);}.ar{fill:url(#ao);}.as{fill:url(#ap);}.at{fill:url(#ar);}.au{fill:url(#as);}.av{fill:url(#at);}.aw{fill:url(#au);}</style><linearGradient id="a" x1="1.167" y1="1.194" x2="-0.324" y2="-0.503" gradientUnits="objectBoundingBox"><stop offset="0" stop-color="#aa80f9"/><stop offset="0.996" stop-color="#6165d7"/></linearGradient><linearGradient id="b" x1="0.185" y1="0.159" x2="1.122" y2="1.408" gradientUnits="objectBoundingBox"><stop offset="0.004" stop-color="#e38ddd"/><stop offset="1" stop-color="#9571f6"/></linearGradient><clipPath id="d"><path class="a" d="M513.362,447.908c-.567,1.957-1.727,4.717-2.937,7.883l33.247-3.91c-6.182-8.792-13.963-17.681-10.942-36.62,1.418-8.887,7.093-25.362.737-33.642-7.241-9.433-14.742-2.523-19.148-10.147-6.886-11.915-20.2-17.93-30.237-8.415-9.907,9.391-3.376,32.3,18.611,53.392C516.753,433.371,516.321,437.692,513.362,447.908Z" transform="translate(-479.576 -358.36)"/></clipPath><clipPath id="f"><path class="b" d="M396.271,913.819c1.975,15.253,8.751,9.354,15.721,10.063,9.174,10.422,11.15,20.86.513,31.326l-13.273-.418c-4.866.344-10.719-.467-11.156-6.949-.495-7.331.685-12.163-7.963-14.775s-12.949-8.728-10.492-16.548c2.586-8.23-6.876-17.8-1.482-23.746C377.537,882.413,394.214,897.935,396.271,913.819Z" transform="translate(-366.448 -889.419)"/></clipPath><linearGradient id="g" x1="0.423" y1="0.574" x2="0.353" y2="0.952" gradientUnits="objectBoundingBox"><stop offset="0" stop-color="#40447e"/><stop offset="0.996" stop-color="#3c3b6b"/></linearGradient><linearGradient id="h" x1="0.481" y1="0.467" x2="0.376" y2="0.533" xlink:href="#g"/><linearGradient id="i" x1="0" y1="0.5" x2="1" y2="0.5" xlink:href="#g"/><linearGradient id="j" x1="0.632" y1="0.116" x2="-0.156" y2="2.155" gradientUnits="objectBoundingBox"><stop offset="0" stop-color="#ffc444"/><stop offset="0.996" stop-color="#f36f56"/></linearGradient><linearGradient id="m" x1="0.582" y1="-0.77" x2="0.141" y2="6.711" xlink:href="#j"/><linearGradient id="n" x1="-64.078" y1="0.066" x2="-62.979" y2="3.338" xlink:href="#j"/><linearGradient id="o" x1="0.585" y1="-0.638" x2="0.125" y2="5.923" xlink:href="#a"/><linearGradient id="p" x1="0.445" y1="0.032" x2="0.559" y2="1.589" xlink:href="#a"/><linearGradient id="q" x1="0.578" y1="-0.519" x2="0.155" y2="5.511" gradientUnits="objectBoundingBox"><stop offset="0" stop-color="#ff9085"/><stop offset="1" stop-color="#fb6fbb"/></linearGradient><linearGradient id="r" x1="1.09" y1="-0.205" x2="-0.313" y2="1.466" xlink:href="#q"/><linearGradient id="s" x1="0.831" y1="-0.282" x2="0.045" y2="1.57" xlink:href="#q"/><linearGradient id="t" x1="0.707" y1="-0.415" x2="0.216" y2="1.752" xlink:href="#q"/><linearGradient id="u" x1="1.451" y1="-0.172" x2="-0.811" y2="1.423" xlink:href="#q"/><linearGradient id="v" x1="1.357" y1="-0.178" x2="-0.681" y2="1.43" xlink:href="#q"/><linearGradient id="w" x1="1.547" y1="-0.167" x2="-0.942" y2="1.416" xlink:href="#q"/><linearGradient id="x" x1="1.277" y1="-0.184" x2="-0.57" y2="1.438" xlink:href="#q"/><linearGradient id="y" x1="0.971" y1="-0.229" x2="-0.149" y2="1.498" xlink:href="#q"/><linearGradient id="z" x1="0.586" y1="-0.595" x2="0.122" y2="5.728" xlink:href="#b"/><linearGradient id="aa" x1="1.087" y1="-0.106" x2="-0.471" y2="2.042" xlink:href="#q"/><linearGradient id="ab" x1="0.45" y1="0.058" x2="0.726" y2="4.145" xlink:href="#j"/><linearGradient id="ac" x1="0.577" y1="-0.079" x2="0.054" y2="3.019" xlink:href="#a"/><linearGradient id="ad" x1="6.663" y1="-2.425" x2="6.865" y2="2.65" xlink:href="#a"/><linearGradient id="ae" x1="23.95" y1="1.152" x2="23.814" y2="-5.073" xlink:href="#j"/><linearGradient id="af" x1="10.232" y1="-1.495" x2="10.552" y2="1.478" xlink:href="#a"/><linearGradient id="ag" x1="17.152" y1="1.353" x2="17.055" y2="-3.033" xlink:href="#j"/><linearGradient id="ah" x1="0" y1="0.5" x2="1" y2="0.5" xlink:href="#q"/><linearGradient id="ak" x1="0.443" y1="0.229" x2="0.813" y2="0.772" gradientUnits="objectBoundingBox"><stop offset="0.004" stop-color="#26264f"/><stop offset="1" stop-color="#444b8c"/></linearGradient><linearGradient id="al" y1="0.5" x2="1" y2="0.5" gradientUnits="objectBoundingBox"><stop offset="0" stop-color="#893976"/><stop offset="1" stop-color="#311944"/></linearGradient><linearGradient id="am" x1="0.739" y1="0.646" x2="2.273" y2="1.827" xlink:href="#a"/><linearGradient id="an" x1="-0.022" y1="0.286" x2="0.858" y2="0.849" xlink:href="#a"/><linearGradient id="ao" x1="0.6" y1="0.342" x2="0.197" y2="0.984" gradientUnits="objectBoundingBox"><stop offset="0.004" stop-color="#6165d7"/><stop offset="1" stop-color="#aa80f9"/></linearGradient><linearGradient id="ap" x1="0.9" y1="-2.991" x2="0.477" y2="0.705" xlink:href="#ak"/><linearGradient id="ar" x1="0.007" y1="-0.098" x2="0.711" y2="1.268" xlink:href="#a"/><linearGradient id="as" x1="-0.243" y1="0.532" x2="1.713" y2="0.413" xlink:href="#a"/><linearGradient id="at" x1="2.295" y1="2.632" x2="3.052" y2="0.973" xlink:href="#al"/><linearGradient id="au" x1="5.9" y1="3.228" x2="9.874" y2="1.338" xlink:href="#al"/></defs><g transform="translate(-366.448 -345.622)"><path class="c" d="M410.405,355.066c-5.243,7.586.9,19.885-6.875,25.59-7.573,5.554-16.876-3.55-24.013,1.231-10.587,7.092-8.654,39.542,6.825,59.7,4.655,6.063,8.545,8.423,10.267,15.28,3.7,14.725-9.3,23.484-6.827,30.766,5.571,16.4,91.242,30.157,125.617-19.123,16.055-23.016,18.457-56.251,4.112-81.494C493.592,341.408,422.17,338.044,410.405,355.066Z" transform="translate(-6.083 0)"/><g transform="translate(366.448 346.311)"><g transform="translate(0 0)"><g transform="translate(6.116)"><path class="a" d="M513.362,447.908c-.567,1.957-1.727,4.717-2.937,7.883l33.247-3.91c-6.182-8.792-13.963-17.681-10.942-36.62,1.418-8.887,7.093-25.362.737-33.642-7.241-9.433-14.742-2.523-19.148-10.147-6.886-11.915-20.2-17.93-30.237-8.415-9.907,9.391-3.376,32.3,18.611,53.392C516.753,433.371,516.321,437.692,513.362,447.908Z" transform="translate(-479.576 -358.36)"/><g class="d"><g class="e" transform="translate(-2.707 -5.681)"><path class="f" d="M480.023,352.433c-.891-4.266-1.948-8.244-3.066-12.455l-.373-1.4c-.664-1.995-1.264-3.98-1.844-5.9a97.19,97.19,0,0,0-4.459-12.616c-.083-.252-.15-.5-.222-.764a5.534,5.534,0,0,0-1.315-2.7l-.023-.035c-8.39-22.6-21.584-43.856-39.214-63.165l.143-.131c17.642,19.322,30.846,40.588,39.245,63.208a5.793,5.793,0,0,1,1.351,2.767c.071.261.138.507.215.745a97.265,97.265,0,0,1,4.464,12.63c.58,1.918,1.18,3.9,1.844,5.9l.374,1.41c1.119,4.214,2.177,8.195,3.069,12.465Z" transform="translate(-429.506 -253.268)"/><path class="f" d="M1231.9,733.2c-3.133-10.913-.826-25.485,1.661-35.788a161.209,161.209,0,0,1,6.207-19.937l.18.073a161,161,0,0,0-6.2,19.913c-2.481,10.279-4.784,24.815-1.663,35.686Z" transform="translate(-1187.087 -654.538)"/><path class="f" d="M778.514,337.918c-3.97-11.395-5.5-24.273-6-28.5-.1-.809-.16-1.344-.19-1.443l.186-.056c.034.111.084.533.2,1.477.5,4.227,2.027,17.089,5.99,28.463Z" transform="translate(-753.792 -304.96)"/><path class="f" d="M536.124,965.693c-6.6-8.969-29.478-12.375-29.709-12.408l.028-.192c.231.033,23.193,3.452,29.837,12.485Z" transform="translate(-502.257 -915.26)"/></g></g></g><g transform="translate(0 28.709)"><path class="b" d="M396.271,913.819c1.975,15.253,8.751,9.354,15.721,10.063,9.174,10.422,11.15,20.86.513,31.326l-13.273-.418c-4.866.344-10.719-.467-11.156-6.949-.495-7.331.685-12.163-7.963-14.775s-12.949-8.728-10.492-16.548c2.586-8.23-6.876-17.8-1.482-23.746C377.537,882.413,394.214,897.935,396.271,913.819Z" transform="translate(-366.448 -889.419)"/><g class="g"><g class="e" transform="translate(1.045 -1.857)"><path class="f" d="M482.2,918.332A100.65,100.65,0,0,1,465.865,900.3a97.51,97.51,0,0,1-11.459-21.411,91.948,91.948,0,0,1-3.936-13.154l.194-.042a91.775,91.775,0,0,0,3.928,13.125,97.3,97.3,0,0,0,11.436,21.367,100.453,100.453,0,0,0,16.305,17.993Z" transform="translate(-446.973 -865.121)"/><path class="f" d="M794.09,1934.492l-.11-.165a34.073,34.073,0,0,1,8.157-3.859,33.238,33.238,0,0,1,4.448-1.152l.036.2a32.956,32.956,0,0,0-4.421,1.146A33.875,33.875,0,0,0,794.09,1934.492Z" transform="translate(-771.913 -1871.241)"/><path class="f" d="M407.721,1509.5c-7.5-5.723-21.769-3.442-21.912-3.417l-.033-.2c.145-.023,14.495-2.32,22.065,3.456Z" transform="translate(-385.777 -1470.262)"/><path class="f" d="M585.045,878.281c-3.238-10.157,3.139-23.085,3.2-23.214l.178.089c-.064.129-6.406,12.985-3.192,23.065Z" transform="translate(-573.405 -855.067)"/></g></g></g></g></g><g transform="translate(368.994 416.295)"><path class="h" d="M595.252,2876.587l-153.358-1.141v3.376a1.856,1.856,0,0,0,1.575,1.834l43.365,6.649a6.942,6.942,0,0,0,1.556.062l105.2-7.581a1.8,1.8,0,0,0,1.666-1.791Z" transform="translate(-440.361 -2809.356)"/><g transform="translate(0)"><path class="i" d="M512.782,1714.685l-96.119,6.177a2.765,2.765,0,0,1-3.118-2.624v-62.486a2.984,2.984,0,0,1,3.118-2.824h96.119a2.557,2.557,0,0,1,2.563,2.553v56.486A2.766,2.766,0,0,1,512.782,1714.685Z" transform="translate(-413.544 -1652.928)"/><path class="j" d="M541.132,1714.685l-96.119,6.177a2.765,2.765,0,0,1-3.119-2.624v-62.486a2.984,2.984,0,0,1,3.119-2.824h96.119a2.557,2.557,0,0,1,2.563,2.553v56.486A2.765,2.765,0,0,1,541.132,1714.685Z" transform="translate(-440.361 -1652.928)"/><path class="k" d="M611.3,1774.184l-89.525,5.366a2.264,2.264,0,0,1-2.537-2.153V1722.69a2.442,2.442,0,0,1,2.537-2.315l89.525-.337a2.1,2.1,0,0,1,2.114,2.092v49.828A2.266,2.266,0,0,1,611.3,1774.184Z" transform="translate(-513.523 -1716.41)"/><path class="l" d="M1412.645,1666.161a1.108,1.108,0,1,1-1.106-1.051A1.083,1.083,0,0,1,1412.645,1666.161Z" transform="translate(-1356.539 -1664.452)"/><path class="m" d="M517.973,1697.547c-7.41-3.625-13.236.969-18.859-3.564-3.409-2.748-1.735-4.8-5.93-8.9-4.646-4.548-7.671-3.02-12.34-7.113-5.9-5.176-2.951-9.2-8.036-12.919-6.169-4.508-12.822-.336-18.695-4.659a12.813,12.813,0,0,1-4.648-7.459h-5.746a1.748,1.748,0,0,0-1.825,1.658v64.772a1.619,1.619,0,0,0,1.825,1.54l97.961-6.323a1.606,1.606,0,0,0,1.181-.656c-7.171-.238-11.577-2.424-14.393-4.683C522.959,1704.813,523.914,1700.454,517.973,1697.547Z" transform="translate(-440.361 -1652.928)"/></g><path class="j" d="M544.963,2789.806l-103.069,6.5,44.94,6.89a6.971,6.971,0,0,0,1.556.063l106.862-7.7-48.65-5.71A9.174,9.174,0,0,0,544.963,2789.806Z" transform="translate(-440.361 -2728.329)"/><path class="n" d="M720.092,2817.291,805.9,2811.8l26.557,3.092-85.069,5.872Z" transform="translate(-703.52 -2749.149)"/></g><g transform="translate(453.554 348.702)"><path class="o" d="M2037.78,446.722a5.552,5.552,0,0,0,.929-11.029c-.146-.012-.29-.014-.434-.013a31.932,31.932,0,0,0-.732-4.611c.134-.055.267-.111.4-.179a5.79,5.79,0,0,0,2.5-7.376,4.9,4.9,0,0,0-6.787-2.6c-.134.069-.262.146-.388.226a29.27,29.27,0,0,0-2.773-3.561c.093-.121.185-.245.27-.376a5.791,5.791,0,0,0-1.23-7.69,4.9,4.9,0,0,0-7.127,1.432c-.083.129-.157.262-.229.4a25.946,25.946,0,0,0-4.071-1.557c.025-.153.048-.308.061-.466.257-3.046.812-6.484-2-6.677-6.515-.446-7.925,2.773-8.181,5.819-.013.158-.017.314-.018.469a25.96,25.96,0,0,0-4.274.854c-.049-.144-.1-.287-.16-.428-1.184-2.756-.97-4.595-3.662-3.562-5.87,2.252-6.808,5.578-5.624,8.334.062.144.132.281.2.416a29.256,29.256,0,0,0-3.33,3.047c-.111-.1-.224-.2-.344-.287a4.9,4.9,0,0,0-7.127,1.433,5.79,5.79,0,0,0,1.23,7.69c.118.089.24.167.363.243a31.921,31.921,0,0,0-1.494,4.424c-.141-.025-.284-.048-.43-.06a5.552,5.552,0,0,0-.929,11.029c.146.012.29.014.434.013a31.949,31.949,0,0,0,.732,4.612c-.133.055-.267.111-.4.179a5.791,5.791,0,0,0-2.5,7.376,4.9,4.9,0,0,0,6.787,2.6c.134-.069.262-.146.388-.226a29.258,29.258,0,0,0,2.773,3.562c-.093.121-.185.245-.27.376a5.791,5.791,0,0,0,1.23,7.69c2.308,1.728,7.3.937,8.932-1.582.083-.129-1.647-.113-1.575-.246a25.952,25.952,0,0,0,4.071,1.557c-.025.153-.048.308-.061.466a5.127,5.127,0,1,0,10.186.858c.013-.158.017-.314.018-.469a25.951,25.951,0,0,0,4.274-.854c.049.144.1.287.16.428a4.9,4.9,0,0,0,6.787,2.6,5.791,5.791,0,0,0,2.5-7.376c-.062-.144-.132-.281-.2-.416a29.266,29.266,0,0,0,3.33-3.047c.111.1.224.2.344.287a4.9,4.9,0,0,0,7.127-1.433,5.791,5.791,0,0,0-1.23-7.69c-.118-.088-.24-.167-.362-.243a31.9,31.9,0,0,0,1.493-4.424C2037.492,446.687,2037.634,446.71,2037.78,446.722ZM2008.86,458.9c-10.213-.86-17.736-10.522-16.8-21.58s9.965-19.325,20.178-18.465,17.736,10.522,16.805,21.58S2019.073,459.757,2008.86,458.9Z" transform="translate(-1977.734 -402.594)"/><path class="o" d="M2690.128,473.235a5.791,5.791,0,0,0,2.5-7.376,4.9,4.9,0,0,0-6.787-2.6c-.134.069-.262.146-.388.226a29.23,29.23,0,0,0-2.774-3.561c.094-.121.185-.245.27-.376,1.629-2.519,2.88-7.516.407-9-4.693-2.813-7.135.221-8.764,2.74-.083.129-.157.262-.229.4a25.95,25.95,0,0,0-4.071-1.557c.025-.153.048-.308.061-.466a5.719,5.719,0,0,0-1.4-4.3q-.941,7.144-1.761,14.3c8.765,2.206,14.876,11.087,14.031,21.117-.716,8.5-6.221,15.345-13.366,17.669.016.929.041,1.86.032,2.791-.023,2.525-.187,5.055-.353,7.582q1.04-.21,2.055-.5c.049.144.1.287.16.428,1.184,2.756,3.83,4.432,8.548,2.218,2.61-1.225,1.922-4.233.738-6.989-.062-.144-.132-.281-.2-.416a29.265,29.265,0,0,0,3.33-3.047c.111.1.224.2.344.287,2.308,1.728,7.485.758,9.113-1.761s-.908-5.633-3.216-7.361c-.118-.089-.24-.167-.363-.243a31.918,31.918,0,0,0,1.493-4.424c.142.025.284.048.43.06a5.552,5.552,0,0,0,.929-11.029c-.146-.012-.29-.014-.434-.013a31.862,31.862,0,0,0-.732-4.611C2689.863,473.359,2690,473.3,2690.128,473.235Z" transform="translate(-2629.921 -444.939)"/><path class="p" d="M2086.318,446.421a5.552,5.552,0,0,0,.929-11.029c-.146-.012-.29-.014-.434-.013a31.865,31.865,0,0,0-.732-4.612c.134-.055.267-.111.4-.179a5.791,5.791,0,0,0,2.5-7.376,4.9,4.9,0,0,0-6.787-2.6c-.134.069-.262.146-.388.226a29.3,29.3,0,0,0-2.773-3.562c.094-.121.185-.245.27-.376a5.791,5.791,0,0,0-1.229-7.69,4.9,4.9,0,0,0-7.127,1.432c-.083.129-.157.262-.229.4a25.941,25.941,0,0,0-4.071-1.557c.025-.153.048-.308.061-.466a5.127,5.127,0,1,0-10.186-.858c-.013.158-.017.314-.018.469a25.939,25.939,0,0,0-4.274.854c-.049-.144-.1-.287-.16-.428a4.9,4.9,0,0,0-6.787-2.6,5.791,5.791,0,0,0-2.5,7.376c.062.144.132.281.2.416a29.29,29.29,0,0,0-3.33,3.048c-.111-.1-.224-.2-.345-.287a4.9,4.9,0,0,0-7.127,1.433,5.791,5.791,0,0,0,1.23,7.69c.118.089.24.167.363.243a31.918,31.918,0,0,0-1.494,4.424c-.141-.025-.284-.048-.43-.06a5.552,5.552,0,0,0-.929,11.029c.146.012.29.014.434.013a31.965,31.965,0,0,0,.732,4.612c-.133.055-.267.111-.4.179a5.791,5.791,0,0,0-2.5,7.376,4.9,4.9,0,0,0,6.787,2.6c.134-.069.262-.146.388-.226a29.272,29.272,0,0,0,2.773,3.562c-.093.121-.185.245-.27.376a5.791,5.791,0,0,0,1.23,7.69,4.9,4.9,0,0,0,7.127-1.432c.083-.129.157-.262.229-.4a25.962,25.962,0,0,0,4.071,1.557c-.025.153-.048.308-.061.466a5.127,5.127,0,1,0,10.186.858c.013-.158.017-.314.018-.469a25.946,25.946,0,0,0,4.274-.854c.049.144.1.287.16.428a4.9,4.9,0,0,0,6.787,2.6,5.791,5.791,0,0,0,2.5-7.376c-.062-.144-.132-.281-.2-.416a29.285,29.285,0,0,0,3.33-3.047c.111.1.224.2.345.287a4.9,4.9,0,0,0,7.127-1.432,5.79,5.79,0,0,0-1.23-7.69c-.118-.088-.24-.167-.362-.243a31.95,31.95,0,0,0,1.493-4.424C2086.03,446.386,2086.172,446.409,2086.318,446.421ZM2057.4,458.6c-10.213-.86-17.736-10.522-16.8-21.58s9.965-19.325,20.178-18.465,17.736,10.522,16.8,21.58S2067.611,459.456,2057.4,458.6Z" transform="translate(-2023.648 -403.026)"/></g><g transform="translate(373.656 373.319)"><g transform="translate(92.502 4.03)"><path class="l" d="M2210.884,993.492v26.058a1.417,1.417,0,0,0,1.319,1.534l43.048-1.054a1.41,1.41,0,0,0,1.2-1.521V993.7Z" transform="translate(-2210.884 -990.195)"/><path class="q" d="M2255.251,932.847,2212.2,932.5a1.445,1.445,0,0,0-1.319,1.556v2.67l45.566.165v-2.542A1.383,1.383,0,0,0,2255.251,932.847Z" transform="translate(-2210.884 -932.498)"/><g transform="translate(3.411 6.967)"><g transform="translate(7.342)"><path class="r" d="M2409.79,1071.454l2.406-10.088c3.628,1.407,6.239,5.475,6.259,10.286Z" transform="translate(-2409.79 -1061.366)"/></g><g transform="translate(0 2.158)"><path class="c" d="M2420.295,1261.214a8.994,8.994,0,0,1-2.429,5.755l-3.772-5.9Z" transform="translate(-2406.518 -1252.43)"/><path class="c" d="M2318.712,1108.881c-1.462-1.664-3.228-3.679-4.635-5.291a6.379,6.379,0,0,1,4.78-2.3,5.8,5.8,0,0,1,1.622.228Z" transform="translate(-2311.909 -1101.291)"/><path class="c" d="M2280.476,1158.751l-5.316,4.734a9.6,9.6,0,0,1,.571-10.145q.584.67,1.3,1.484C2278.466,1156.464,2279.907,1158.1,2280.476,1158.751Z" transform="translate(-2273.978 -1150.526)"/><path class="c" d="M2307.521,1267.182l-.1,7.562a6.508,6.508,0,0,1-5.013-3Z" transform="translate(-2300.869 -1258.214)"/><path class="c" d="M2406.163,1272.976l3.643,5.7a6.218,6.218,0,0,1-3.741,1.553Z" transform="translate(-2398.924 -1263.695)"/></g><path class="p" d="M2614.446,1103.175l-21.816.094v-2.543l21.816-.034Z" transform="translate(-2575.403 -1098.565)"/><path class="p" d="M2614.446,1186.313l-21.816.2v-2.544l21.816-.142Z" transform="translate(-2575.403 -1177.208)"/><path class="p" d="M2614.446,1269.45l-21.816.31v-2.543l21.816-.25Z" transform="translate(-2575.403 -1255.852)"/><path class="p" d="M2614.446,1352.588l-21.816.418v-2.543l21.816-.358Z" transform="translate(-2575.403 -1334.495)"/></g><path class="l" d="M2246.4,959.063a.642.642,0,0,1-.584.691.651.651,0,0,1-.585-.7.642.642,0,0,1,.585-.691A.651.651,0,0,1,2246.4,959.063Z" transform="translate(-2243.376 -956.966)"/></g><g transform="translate(47.232 58.532)"><path class="l" d="M1373.486,2011.739v31.585a1.659,1.659,0,0,0,1.634,1.8l52.971-3.178a1.78,1.78,0,0,0,1.466-1.884V2010.19Z" transform="translate(-1373.486 -2006.432)"/><path class="s" d="M1428.091,1940.678l-52.971,1.258a1.834,1.834,0,0,0-1.634,1.938v3.236l56.07-1.61v-3.061A1.61,1.61,0,0,0,1428.091,1940.678Z" transform="translate(-1373.486 -1940.678)"/><path class="c" d="M1534.022,2141.407l-44.075,2.4v-21.534l44.075-1.479Z" transform="translate(-1483.651 -2111.059)"/><path class="t" d="M1534.022,2225.765l-44.075,2.4v-13.843c1.443,9.342,2.979,11.349,4.136,11.389,1.628.057,2.5-3.781,4.965-4,2.442-.219,3.265,3.419,5.092,3.2,3.472-.417,4.415-14.069,7.228-14.273,2.233-.162,3.742,8.31,5.708,7.882,1.436-.312,1.783-5.091,2.871-5.087.986,0,1.027,3.931,2.324,4.237,1.9.448,3.747-7.536,6.363-7.692,1.448-.086,3.251,2.22,5.386,10.233Z" transform="translate(-1483.651 -2195.417)"/><path class="l" d="M1418.39,1993.987a.814.814,0,0,1-.723.86.764.764,0,0,1-.724-.823.814.814,0,0,1,.724-.86A.765.765,0,0,1,1418.39,1993.987Z" transform="translate(-1414.595 -1990.327)"/></g><g transform="translate(3.004 0)"><path class="l" d="M555.359,962.837v45.283a2.541,2.541,0,0,0,2.44,2.68l77.366-1.321a2.381,2.381,0,0,0,2.093-2.551V965.082Z" transform="translate(-555.359 -957.167)"/><path class="u" d="M635.166,860.491,557.8,857.957a2.494,2.494,0,0,0-2.44,2.642v4.64l81.9,2.123v-4.288A2.426,2.426,0,0,0,635.166,860.491Z" transform="translate(-555.359 -857.956)"/><path class="l" d="M621.042,905.049a1.108,1.108,0,0,1-1.077,1.174,1.188,1.188,0,0,1-1.08-1.237,1.107,1.107,0,0,1,1.08-1.173A1.189,1.189,0,0,1,621.042,905.049Z" transform="translate(-615.451 -901.333)"/><g transform="translate(10.633 13.95)"><path class="c" d="M758.139,1149.584l-6.1.071V1116l6.1.122Z" transform="translate(-752.044 -1116.003)"/><path class="v" d="M758.139,1458.858l-6.1.07v-15.977l6.1.021Z" transform="translate(-752.044 -1425.277)"/><path class="c" d="M914.563,1152.439l-6,.069v-33.386l6,.12Z" transform="translate(-900.103 -1118.954)"/><path class="w" d="M914.563,1597.512l-6,.069v-7.925l6-.025Z" transform="translate(-900.103 -1564.028)"/><path class="c" d="M1068.53,1155.25l-5.906.068v-33.123l5.906.118Z" transform="translate(-1045.834 -1121.86)"/><path class="x" d="M1068.53,1661.816l-5.906.068v-4.128l5.906-.045Z" transform="translate(-1045.834 -1628.426)"/><path class="c" d="M1220.1,1158.016l-5.814.067v-32.865l5.814.116Z" transform="translate(-1189.293 -1124.72)"/><path class="y" d="M1220.1,1282.586l-5.814.067v-25.746l5.814.076Z" transform="translate(-1189.293 -1249.291)"/><path class="c" d="M1369.318,1160.74l-5.725.066V1128.2l5.725.114Z" transform="translate(-1330.533 -1127.536)"/><path class="z" d="M1369.318,1335.143l-5.725.066v-22.644l5.725.059Z" transform="translate(-1330.533 -1301.939)"/><path class="c" d="M1516.249,1163.421l-5.637.065v-32.36l5.637.112Z" transform="translate(-1469.603 -1130.309)"/><path class="aa" d="M1516.249,1245.753l-5.637.065v-27.655l5.637.086Z" transform="translate(-1469.603 -1212.641)"/><path class="c" d="M1660.942,1166.062l-5.552.064v-32.114l5.552.111Z" transform="translate(-1606.555 -1133.039)"/><path class="ab" d="M1660.942,1382.829l-5.552.064v-19.726l5.552.043Z" transform="translate(-1606.555 -1349.806)"/><path class="c" d="M1803.447,1168.663l-5.469.063v-31.871l5.469.109Z" transform="translate(-1741.435 -1135.728)"/><path class="ac" d="M1803.447,1532.665l-5.469.063v-11.065l5.469,0Z" transform="translate(-1741.435 -1499.73)"/></g></g><g transform="translate(0 63.125)"><path class="l" d="M499.788,2085.258v26.288a1.36,1.36,0,0,0,1.276,1.509l41.755-2.334a1.465,1.465,0,0,0,1.166-1.573v-25.091Z" transform="translate(-499.788 -2080.898)"/><path class="ad" d="M542.819,2025.643l-41.755.992a1.5,1.5,0,0,0-1.276,1.61v2.694l44.2-1.245v-2.571A1.332,1.332,0,0,0,542.819,2025.643Z" transform="translate(-499.788 -2025.643)"/><path class="l" d="M534.875,2069.034a.665.665,0,0,1-.565.715.625.625,0,0,1-.566-.686.664.664,0,0,1,.566-.715A.625.625,0,0,1,534.875,2069.034Z" transform="translate(-531.908 -2066.039)"/><g transform="translate(2.802 10.693)"><path class="ae" d="M564.536,2229.87a2.79,2.79,0,0,1,1.968-1.755l.06-4.495c-2.428.2-4.505,2.142-5.432,4.818Z" transform="translate(-560.617 -2223.611)"/><path class="p" d="M673.132,2227.94a2.839,2.839,0,0,1,2.16,2.773l3.564.034c-.045-3.973-2.519-7.126-5.664-7.3Z" transform="translate(-666.563 -2223.449)"/><path class="p" d="M617.036,2373.563a2.957,2.957,0,0,1-2.516,2.748,2.067,2.067,0,0,1-1.045-.23l-1.9,3.919a5.013,5.013,0,0,0,2.944.785c3.184-.159,5.785-3.313,6.08-7.192Z" transform="translate(-608.334 -2365.448)"/><path class="p" d="M554.27,2336.289l1.9-3.921a3.4,3.4,0,0,1-.941-2.436,4.021,4.021,0,0,1,.062-.7l-3.406-1.429a9.583,9.583,0,0,0-.275,2.285A7.981,7.981,0,0,0,554.27,2336.289Z" transform="translate(-551.613 -2322.158)"/></g><g transform="translate(16.172 10.244)"><path class="p" d="M811.5,2221.468a2.724,2.724,0,0,1,1.914-1.73l.058-4.433c-2.361.2-4.382,2.11-5.283,4.75Z" transform="translate(-807.686 -2215.296)"/><path class="af" d="M917.127,2219.573a2.793,2.793,0,0,1,2.1,2.737l3.467.036c-.044-3.918-2.451-7.03-5.51-7.2Z" transform="translate(-910.737 -2215.143)"/><path class="p" d="M862.56,2363.22a2.9,2.9,0,0,1-2.447,2.709,1.988,1.988,0,0,1-1.016-.227l-1.848,3.864a4.827,4.827,0,0,0,2.864.777c3.1-.155,5.628-3.264,5.914-7.09Z" transform="translate(-854.096 -2355.215)"/><path class="p" d="M801.513,2326.372l1.85-3.865a3.381,3.381,0,0,1-.915-2.4,4.012,4.012,0,0,1,.06-.695L799.2,2318a9.57,9.57,0,0,0-.267,2.254A7.926,7.926,0,0,0,801.513,2326.372Z" transform="translate(-798.929 -2312.438)"/></g><g transform="translate(29.177 9.807)"><path class="p" d="M1051.736,2213.294a2.661,2.661,0,0,1,1.863-1.706l.057-4.373c-2.3.191-4.264,2.079-5.141,4.682Z" transform="translate(-1048.028 -2207.208)"/><path class="p" d="M1154.518,2211.431a2.751,2.751,0,0,1,2.045,2.7l3.374.037c-.043-3.866-2.385-6.937-5.362-7.107Z" transform="translate(-1148.301 -2207.062)"/><path class="p" d="M1101.422,2353.156a2.84,2.84,0,0,1-2.382,2.671,1.915,1.915,0,0,1-.989-.225l-1.8,3.811a4.654,4.654,0,0,0,2.787.768c3.014-.151,5.477-3.216,5.756-6.991Z" transform="translate(-1093.185 -2345.258)"/><path class="ag" d="M1042.021,2316.726l1.8-3.812a3.362,3.362,0,0,1-.89-2.371,4.021,4.021,0,0,1,.059-.686l-3.223-1.394a9.564,9.564,0,0,0-.26,2.223A7.873,7.873,0,0,0,1042.021,2316.726Z" transform="translate(-1039.507 -2302.982)"/></g></g></g><g transform="translate(441.001 403.196)"><path class="ah" d="M2254.851,2871.806s-3.9,1.98-3.96,2.3,2.506-.106,3.555-.061,1.913-.3,1.817-.8-.462-1.746-.462-1.746Z" transform="translate(-2223.57 -2792.523)"/><path class="ai" d="M2321.537,2843.367l.237,1.962a1.242,1.242,0,0,0,1.031-.045l.177-2.152Z" transform="translate(-2290.398 -2765.691)"/><path class="aj" d="M2611.78,2848.342l.453.814a1.069,1.069,0,0,1,.1.761c-.158.677-.475,2-.613,2.339-.188.469-2.71.747-2.71.747s-.225-.354.3-.781.86-.494,1.045-1.125a18.344,18.344,0,0,0,.308-2.415Z" transform="translate(-2562.288 -2770.619)"/><path class="ak" d="M2626.117,2806.009a28.336,28.336,0,0,1,.976,2.9s.262.375.76-.178.225-.249.225-.249l-.093-2.7Z" transform="translate(-2578.512 -2730.353)"/><path class="al" d="M2279.293,2070.718c-.206,5.852-.214,12.209.087,19,.339,7.648,1.021,14.718,1.879,21.125.32.011.655.013,1,0,.237-.008.466-.021.688-.038a52.824,52.824,0,0,0,1.444-5.163,55.012,55.012,0,0,0,1.008-6.046c.75-6.628-.129-7.207.48-12.118.539-4.35,1.306-4.521,2.207-10.7.977-6.7.25-7.707-.1-8.07C2286.481,2067.17,2282.944,2068.222,2279.293,2070.718Z" transform="translate(-2250.298 -2032.454)"/><path class="am" d="M2299.4,2068.731c-1.436-1.475-4.721-.582-8.189,1.669,3.991,4.821,4.426,7.948,3.947,9.977-.541,2.293-2.184,2.953-2.178,5.461.008,3.082,2.5,3.9,2.442,7.159-.035,2.156-1.128,2.133-1.386,4.8-.306,3.151,1.122,4.237.66,6.568a6.357,6.357,0,0,1-2.385,3.664c.117.958.236,1.905.361,2.835.319.011.654.013,1,0,.237-.007.466-.02.687-.037a52.754,52.754,0,0,0,1.444-5.163,55.055,55.055,0,0,0,1.009-6.046c.75-6.628-.129-7.207.48-12.118.539-4.35,1.306-4.52,2.207-10.7C2300.483,2070.1,2299.756,2069.094,2299.4,2068.731Z" transform="translate(-2261.713 -2032.47)"/><path class="al" d="M2327.6,2059.781a136.608,136.608,0,0,1,10.456,20.991,142.012,142.012,0,0,1,5.655,17.565,1.907,1.907,0,0,0,1.15.2,2.1,2.1,0,0,0,1.3-.787,42.286,42.286,0,0,0,.3-9.331,35.591,35.591,0,0,0-1.174-7.013c-.948-3.421-1.6-3.613-2.838-7.232-1.285-3.757-.973-4.694-2.2-9.4a66.854,66.854,0,0,0-2.747-8.243Z" transform="translate(-2296.131 -2021.616)"/><path class="an" d="M2183.611,1432.854c-3.794-2.478-5.42-2.192-6.52-4.418-1.088-2.2-1.085-5.694.715-7.544a4.286,4.286,0,0,1,3.359-1.267c2.807.354,3.013,3.9,6.161,5.524,2.668,1.377,5.577.408,7.545-.247,4.74-1.578,5.444-4.562,7.9-4.086,3.08.6,3.352,5.548,6.421,5.853,2.051.2,2.539-1.948,5.235-2.54,3.168-.7,6.645,1.362,8.594,3.865,3.563,4.575,2.625,11.4.4,15.573-1.832,3.425-5.77,7.364-9.088,6.516-2.621-.67-3.475-3.973-5.729-3.645-1.6.234-1.661,1.975-3.556,2.872-3.112,1.472-6.954-1.333-8-2.1-2.987-2.181-2.511-3.576-6.363-7.949A33.746,33.746,0,0,0,2183.611,1432.854Z" transform="translate(-2153.059 -1419.112)"/><path class="ao" d="M1748.908,1414.724s-.641-.9-1.048-1.564a25.956,25.956,0,0,0-2.306-2.54s-.145.3.264.773,1.269,1.291,1.071,1.635-.755.649-.353,1.3,1.1.207,1.458.729.723,1.092.723,1.092Z" transform="translate(-1745.53 -1410.621)"/><path class="ap" d="M1789.958,1475.7l-1.3,2.194a23.561,23.561,0,0,0,2.586,5.667,21.778,21.778,0,0,0,5.607,5.98c4.286,3.052,12.093,5.9,14.378,2.651,2.039-2.9-1.252-9.321-1.858-10.474a15.113,15.113,0,0,1-5.834,1.7,13.67,13.67,0,0,1-5.55-.638C1793.38,1481.193,1790.822,1477.2,1789.958,1475.7Z" transform="translate(-1786.329 -1472.18)"/><path class="aq" d="M2079.123,1569.705c.216,1.083,3.586.5,4.282,2.469.373,1.056-.419,1.726-.452,3.519-.037,2.007.919,3.146,1.653,4.725,1.074,2.312,1.079,4.579,1.086,9.112.012,6.453-1.416,7.75-.2,9.83,1.585,2.707,5.392,2.88,6.421,2.927,3.519.16,3.936-1.709,7.754-1.933,4.361-.255,4.981,2.115,8.1,1.1,2.849-.924,3.808-3.38,6.026-2.871,1.386.318,1.754,1.448,3.062,1.325a3.28,3.28,0,0,0,2.766-2.761c.115-1.66-1.7-3.752-4.544-3.755a8.083,8.083,0,0,1-5.087.387c-3.414-.936-5.189-4.182-7.162-7.786a26.942,26.942,0,0,1-3.9-13.088c-.012-2.479.407-3.2-.2-4.529-1.962-4.3-9.573-3.66-10.218-3.6C2083.327,1565.282,2078.863,1568.4,2079.123,1569.705Z" transform="translate(-2061.079 -1556.383)"/><g transform="translate(15.927 18.278)"><path class="ar" d="M2041,1757.206l9.56.417a.262.262,0,0,1,.232.19l4.5,13.969c.064.2-.138.7-.327.679l-9.452-1.438a.265.265,0,0,1-.213-.183l-4.686-13.039C2040.55,1757.609,2040.813,1757.2,2041,1757.206Z" transform="translate(-2040.581 -1756.747)"/><path class="l" d="M2040.422,1763.528l9.56.417a.263.263,0,0,1,.233.19l4.5,13.969a.282.282,0,0,1-.27.384l-9.509-1.143a.264.264,0,0,1-.213-.183l-4.555-13.243A.285.285,0,0,1,2040.422,1763.528Z" transform="translate(-2040.154 -1762.727)"/><path class="as" d="M2086.875,1750.041l-.368-1.114a.152.152,0,0,1,.129-.207h3.48a.14.14,0,0,1,.131.107l.35,1.232a.151.151,0,0,1-.135.2l-3.461-.118A.14.14,0,0,1,2086.875,1750.041Z" transform="translate(-2083.992 -1748.72)"/><path class="c" d="M2048.922,1775.108c-.621-2.251.4-3.718-.642-5.467-1.476-2.475-4.646-1.427-5.631-3.424a3.518,3.518,0,0,1-.034-2.593l-2.192-.1a.285.285,0,0,0-.251.392l4.555,13.243a.264.264,0,0,0,.213.183l5.779.695A6.449,6.449,0,0,1,2048.922,1775.108Z" transform="translate(-2040.154 -1762.728)"/></g><path class="ao" d="M2238.127,1916.989a7.854,7.854,0,0,1-2-.713c-.557-.392-1.148-1.022-1.969-.988s-1.648.5-1.269.609,1.088.949,1.63,1.28a4.711,4.711,0,0,0,2.009.343,4.464,4.464,0,0,1,1.14.594Z" transform="translate(-2206.45 -1888.004)"/><path class="at" d="M2218.145,1647.163a8.08,8.08,0,0,1-5.087.387c-3.414-.936-5.189-4.181-7.162-7.786a26.942,26.942,0,0,1-3.9-13.088c-.012-2.479.406-3.2-.2-4.529a4.621,4.621,0,0,0-.331-.594,5.184,5.184,0,0,0-2.237,3.245c-.411,2.411,1.527,4.382.519,6.461-.966,1.991-3.354,1.441-3.853,3.148-.537,1.842,2.106,2.953,2.223,5.8.14,3.415-3.533,5.088-2.889,7.372.558,1.98,3.631,1.837,3.63,2.9,0,1.263.095-1.344-3.63-2.9-1.129-.471-6.443,3.451-7.088,2.762a3.935,3.935,0,0,0,.42,2.788c1.585,2.707,5.392,2.88,6.421,2.927,3.519.16,3.936-1.709,7.754-1.933,4.361-.255,4.982,2.115,8.1,1.1,2.849-.923,3.808-3.38,6.026-2.871,1.386.318,1.754,1.448,3.062,1.325a3.281,3.281,0,0,0,2.766-2.761C2222.8,1649.258,2220.99,1647.167,2218.145,1647.163Z" transform="translate(-2164.144 -1610.15)"/><path class="au" d="M2307.458,1587.588l-1.334,2.651c.685.375,8.012,4.251,13.323.414a9.1,9.1,0,0,0,3.343-4.2,11.416,11.416,0,0,0,.078-6.9c-.934-4.068-3.575-8.336-7.322-10.051a21.425,21.425,0,0,0-4.729-1.3c-1.355-.265-3.486-.588-3.531-.359-.022.112.473.255.817.472,2.112,1.335-.569,6.85,1.912,9.5,2.377,2.533,5.462,2.115,5.96,4.411a3.76,3.76,0,0,1-.46,2.456C2314.323,1587.067,2311.122,1588.135,2307.458,1587.588Z" transform="translate(-2275.818 -1559.272)"/><path class="av" d="M2167.151,1492.619s.861,2.8,1.932,3.232,2.766.935,2.978,1.129-5.693,2.338-9.005,1.351h0c.944-.462,1.2-.609,1.2-.609a5.658,5.658,0,0,0,1.163-.859,4.939,4.939,0,0,0,1.124-1.769l-.31-1.588Z" transform="translate(-2140.485 -1488.186)"/><path class="aw" d="M2202.3,1466.65a1.651,1.651,0,0,1-1.681,1.049c-1.059-.17-1.005-3.149-.286-3.656a1.276,1.276,0,0,1,1.088-.086,1.792,1.792,0,0,1,.842,1.811c.233-.139.466-.117.546.008.1.158-.063.445-.1.51A.873.873,0,0,1,2202.3,1466.65Z" transform="translate(-2175.251 -1460.996)"/></g></g></svg>